# xmcd
#
# Track frame offsets:
# 150
# 12607
# 27430
# 38300
# 52087
# 65490
# 80697
# 93187
# 106957
# 117265
# 131557
# 143742
# 157370
# 169365
# 182985
#
# Disc length: 2584 seconds
# Revision: 4
# Processed by: cddbd v1.5.1PL0 Copyright (c) Steve Scherf et al.
# Submitted via: MusicBin 0.4
#
DISCID=d40a160f
DTITLE=Elmore James and John Brim - Whose Muddy Shoes
DYEAR=1960
DGENRE=Blues
TTITLE0=Ice Cream Man
TTITLE1=Whose Muddy Shoes
TTITLE2=Madison Blues
TTITLE3=I See My Baby
TTITLE4=You Got Me
TTITLE5=My Best Friend
TTITLE6=The Sun Is Shining
TTITLE7=Lifetime Baby
TTITLE8=Talk To Me Baby
TTITLE9=Rattlesnake
TTITLE10=Be Careful What You Do
TTITLE11=Dust My Broom
TTITLE12=Tool Bag Boogie
TTITLE13=Tough Times
TTITLE14=Stormy Monday
EXTD=Originally released in October, 1969 as Chess LP1537\nTracks 
EXTD=recorded in 1953 and 1960\n\n
EXTT0=
EXTT1=
EXTT2=
EXTT3=
EXTT4=
EXTT5=
EXTT6=
EXTT7=
EXTT8=
EXTT9=This was originally released not long after Big Mama Thornto
EXTT9=n's "Hound Dog" in 1953 but was withdrawn due to a threatene
EXTT9=d lawsuit over copyright infringement.
EXTT10=
EXTT11=
EXTT12=
EXTT13=
EXTT14=
PLAYORDER=
